<svg width="373" height="350" viewBox="113 56 373 350" fill="none" xmlns="http://www.w3.org/2000/svg">
<path d="M253.888 136.438C271.254 145.024 287.128 156.397 300.863 170.133C317.392 186.662 330.503 206.285 339.448 227.881C348.33 249.323 352.93 272.293 352.995 295.498H352.998C352.998 295.583 352.996 295.667 352.996 295.752C352.996 295.834 352.998 295.916 352.998 295.998H352.995C352.93 309.682 350.206 323.225 344.968 335.871L344.463 337.067C339.178 349.396 331.588 360.607 322.098 370.098C312.301 379.894 300.671 387.666 287.871 392.968L286.669 393.457C276.83 397.391 266.467 399.814 255.931 400.659C208.39 375.498 175.998 325.531 175.998 267.998C175.998 211.293 207.464 161.938 253.888 136.438Z" fill="#000985"></path>
<path d="M325.998 117.998C408.841 117.998 475.998 185.155 475.998 267.998C475.998 291.061 470.79 312.907 461.491 332.428C458.574 322.66 455.154 313.03 451.238 303.576C436.212 267.3 414.188 234.338 386.423 206.573C358.658 178.809 325.696 156.784 289.42 141.758C280.608 138.108 271.581 134.891 262.401 132.108C281.71 123.056 303.263 117.998 325.998 117.998Z" fill="#000985"></path>
<path d="M176 66C176.268 94.5963 199.399 117.727 227.995 117.995V118C199.232 118.27 175.998 141.671 175.998 170.498C175.998 170.664 175.998 170.83 176 170.995H175.995C175.997 170.83 175.998 170.664 175.998 170.498C175.998 141.503 152.493 117.998 123.498 117.998C123.332 117.998 123.166 117.998 123 118V117.995C123.166 117.997 123.332 117.998 123.498 117.998C152.325 117.998 175.726 94.7638 175.995 66H176Z" fill="#366EFF"></path>
</svg>