<svg width="640" height="640" viewBox="0 0 640 640" fill="none" xmlns="http://www.w3.org/2000/svg">
<path d="M240.54 167.135C264.892 179.219 287.152 195.225 306.413 214.557C329.591 237.819 347.976 265.437 360.52 295.831C372.974 326.009 379.425 358.337 379.516 390.996H379.52C379.52 391.115 379.518 391.234 379.518 391.353C379.518 391.469 379.52 391.584 379.52 391.7H379.516C379.425 410.959 375.605 430.019 368.26 447.817L367.552 449.501C360.14 466.852 349.498 482.631 336.189 495.988C322.452 509.775 306.143 520.713 288.194 528.175L286.509 528.864C272.712 534.401 258.179 537.811 243.405 539C176.74 503.588 131.318 433.265 131.318 352.292C131.318 272.485 175.442 203.024 240.54 167.135Z" fill="#000985"/>
<path d="M341.659 141.182C457.827 141.182 552 235.699 552 352.292C552 384.751 544.697 415.497 531.657 442.971C527.567 429.224 522.771 415.67 517.28 402.365C496.209 351.31 465.325 304.919 426.391 265.843C387.457 226.767 341.236 195.77 290.366 174.622C278.01 169.485 265.351 164.957 252.479 161.041C279.555 148.301 309.778 141.182 341.659 141.182Z" fill="#000985"/>
<path d="M131.321 68C131.696 108.247 164.132 140.8 204.232 141.178V141.185C163.898 141.565 131.318 174.499 131.318 215.071C131.318 215.304 131.318 215.537 131.321 215.77H131.314C131.316 215.537 131.318 215.304 131.318 215.071C131.318 174.263 98.3573 141.182 57.6984 141.182C57.4653 141.182 57.2325 141.183 57 141.185V141.178C57.2325 141.18 57.4653 141.182 57.6984 141.182C98.1224 141.182 130.936 108.482 131.314 68H131.321Z" fill="#366EFF"/>
</svg>
